<svg width="1024" height="795" viewBox="0 0 1024 795" fill="none" xmlns="http://www.w3.org/2000/svg">
<g id="TOP_PC">
<g id="ABOUTUS">
<g id="BG">
<g id="BG_2">
<rect id="Rectangle 2" width="1024" height="550" fill="#EAF1F2"/>
<rect id="Rectangle 3" y="550" width="1024" height="265" fill="#F6F3E9"/>
<path id="Vector" d="M1024 746.033C938.662 746.033 938.662 793 853.331 793C768 793 767.993 746.033 682.662 746.033C597.331 746.033 597.331 793 512 793C426.669 793 426.669 746.033 341.338 746.033C256.007 746.033 256.007 793 170.676 793C85.3454 793 85.3309 746.033 0 746.033V363.953C324.132 229.349 699.868 229.349 1024 363.953V746.033Z" fill="#C7E7C8"/>
</g>
<g id="cloud">
<g id="cloud_1">
<g id="Vector_2" filter="url(#filter0_d_0_1)">
<path d="M953.776 62.9827C954.179 61.6373 954.403 60.2022 954.403 58.7223C954.403 50.4256 947.691 43.6762 939.391 43.6762C934.334 43.6762 929.882 46.1876 927.153 50.022C924.423 46.1876 919.971 43.6762 914.915 43.6762C908.897 43.6762 903.729 47.2191 901.335 52.3316C899.948 51.9056 898.449 51.6589 896.927 51.6589C889.925 51.6589 884.063 56.4799 882.407 62.9603C875.315 64.1487 869.901 70.3151 869.901 77.7821C869.901 86.0787 876.613 92.8281 884.913 92.8281C889.209 92.8281 893.057 91.0118 895.786 88.1192C898.18 93.2317 903.348 96.7746 909.366 96.7746C913.349 96.7746 916.973 95.205 919.658 92.6711C922.343 95.205 925.967 96.7746 929.949 96.7746C935.229 96.7746 939.86 94.0389 942.523 89.9131C945.006 91.7293 948.049 92.8057 951.36 92.8057C959.638 92.8057 966.372 86.0787 966.372 77.7596C966.372 70.2703 960.913 64.1039 953.776 62.9378V62.9827Z" fill="#FFFDF8"/>
</g>
<g id="Vector_3" filter="url(#filter1_d_0_1)">
<path d="M991.944 81.3922C992.212 80.4504 992.414 79.4862 992.414 78.4548C992.414 72.7368 987.783 68.0952 982.078 68.0952C978.588 68.0952 975.522 69.8442 973.643 72.4902C971.764 69.8442 968.699 68.0952 965.231 68.0952C961.07 68.0952 957.512 70.5618 955.879 74.1046C954.917 73.8131 953.91 73.5889 952.837 73.5889C948.004 73.5889 943.999 76.9076 942.858 81.3922C937.959 82.1995 934.222 86.4375 934.222 91.5724C934.222 97.2903 938.854 101.932 944.559 101.932C947.512 101.932 950.174 100.676 952.053 98.6581C953.709 102.201 957.244 104.645 961.405 104.645C964.157 104.645 966.64 103.546 968.497 101.797C970.354 103.546 972.838 104.645 975.59 104.645C979.236 104.645 982.413 102.739 984.27 99.8914C985.97 101.147 988.074 101.91 990.356 101.91C996.061 101.91 1000.69 97.2679 1000.69 91.55C1000.69 86.3926 996.911 82.1322 991.966 81.3474L991.944 81.3922Z" fill="#FFFDF8"/>
</g>
</g>
<g id="cloud_1_2">
<g id="Vector_4" filter="url(#filter2_d_0_1)">
<path d="M112.776 55.9827C113.179 54.6373 113.403 53.2022 113.403 51.7223C113.403 43.4256 106.691 36.6762 98.3906 36.6762C93.3344 36.6762 88.8822 39.1876 86.1527 43.022C83.4233 39.1876 78.9711 36.6762 73.9149 36.6762C67.8966 36.6762 62.7285 40.2191 60.3346 45.3316C58.9475 44.9056 57.4486 44.6589 55.9272 44.6589C48.9245 44.6589 43.0629 49.4799 41.4073 55.9603C34.3152 57.1487 28.901 63.3151 28.901 70.7821C28.901 79.0787 35.6128 85.8281 43.9131 85.8281C48.2086 85.8281 52.0567 84.0118 54.7862 81.1192C57.1801 86.2317 62.3482 89.7746 68.3664 89.7746C72.3488 89.7746 75.9732 88.205 78.6579 85.6711C81.3426 88.205 84.967 89.7746 88.9493 89.7746C94.2293 89.7746 98.8604 87.0389 101.523 82.9131C104.006 84.7293 107.049 85.8057 110.36 85.8057C118.638 85.8057 125.372 79.0787 125.372 70.7596C125.372 63.2703 119.913 57.1039 112.776 55.9378V55.9827Z" fill="#FFFDF8"/>
</g>
<g id="Vector_5" filter="url(#filter3_d_0_1)">
<path d="M150.944 74.3922C151.212 73.4504 151.414 72.4862 151.414 71.4548C151.414 65.7368 146.783 61.0952 141.078 61.0952C137.588 61.0952 134.522 62.8442 132.643 65.4902C130.764 62.8442 127.699 61.0952 124.231 61.0952C120.07 61.0952 116.512 63.5618 114.879 67.1046C113.917 66.8131 112.91 66.5889 111.837 66.5889C107.004 66.5889 102.999 69.9076 101.858 74.3922C96.9587 75.1995 93.2224 79.4375 93.2224 84.5724C93.2224 90.2903 97.8536 94.9319 103.559 94.9319C106.512 94.9319 109.174 93.6762 111.053 91.6581C112.709 95.201 116.244 97.6452 120.405 97.6452C123.157 97.6452 125.64 96.5464 127.497 94.7974C129.354 96.5464 131.838 97.6452 134.59 97.6452C138.236 97.6452 141.413 95.7392 143.27 92.8914C144.97 94.1471 147.074 94.9095 149.356 94.9095C155.061 94.9095 159.692 90.2679 159.692 84.55C159.692 79.3926 155.911 75.1322 150.966 74.3474L150.944 74.3922Z" fill="#FFFDF8"/>
</g>
</g>
<g id="cloud_2" filter="url(#filter4_d_0_1)">
<path d="M644.875 72.3065C645.278 70.9611 645.502 69.526 645.502 68.046C645.502 59.7494 638.79 53 630.49 53C625.433 53 620.981 55.5114 618.252 59.3458C615.522 55.5114 611.07 53 606.014 53C599.996 53 594.828 56.5429 592.434 61.6554C591.047 61.2293 589.548 60.9827 588.026 60.9827C581.024 60.9827 575.162 65.8037 573.506 72.284C566.414 73.4725 561 79.6389 561 87.1058C561 95.4024 567.712 102.152 576.012 102.152C580.308 102.152 584.156 100.336 586.885 97.443C589.279 102.555 594.447 106.098 600.465 106.098C604.448 106.098 608.072 104.529 610.757 101.995C613.442 104.529 617.066 106.098 621.048 106.098C626.328 106.098 630.959 103.363 633.622 99.2368C636.105 101.053 639.148 102.129 642.459 102.129C650.737 102.129 657.471 95.4024 657.471 87.0834C657.471 79.594 652.012 73.4276 644.875 72.2616V72.3065Z" fill="#FFFDF8"/>
</g>
</g>
<g id="grass">
<path id="Vector_6" d="M185.064 492.473C185.069 492.08 185.079 491.682 185.108 491.289C185.133 490.957 185.162 490.746 185.296 490.312C185.286 490.338 185.399 490.01 185.35 490.141C185.301 490.272 185.439 489.955 185.429 489.975C185.469 489.894 185.523 489.819 185.567 489.738C185.582 489.708 185.681 489.577 185.567 489.728C185.661 489.602 185.775 489.502 185.883 489.391C186.076 489.2 185.73 489.466 185.962 489.33C186.041 489.285 186.115 489.24 186.194 489.189C186.416 489.053 186.026 489.22 186.273 489.154C186.342 489.139 186.416 489.119 186.485 489.099C186.624 489.053 186.263 489.084 186.51 489.099C186.555 489.099 186.831 489.134 186.584 489.084C186.643 489.094 186.698 489.109 186.757 489.124C186.989 489.194 186.787 489.109 186.772 489.124C186.777 489.124 186.875 489.179 186.89 489.189C186.93 489.215 186.969 489.235 187.004 489.26C187.093 489.325 187.078 489.31 186.954 489.22C186.984 489.21 187.182 489.436 187.201 489.461C187.251 489.512 187.29 489.567 187.335 489.623C187.315 489.602 187.201 489.431 187.3 489.582C187.448 489.809 187.591 490.041 187.725 490.277C188.357 491.41 189.211 492.961 190.701 492.886C191.205 492.861 191.654 492.594 191.98 492.216C192.079 492.105 192.163 491.984 192.257 491.869C192.291 491.823 192.331 491.778 192.37 491.738C192.405 491.697 192.676 491.476 192.479 491.617C192.592 491.536 192.716 491.466 192.839 491.4C193.066 491.274 192.651 491.441 192.903 491.375C192.958 491.36 193.012 491.34 193.066 491.325C193.15 491.3 193.234 491.284 193.313 491.269C193.506 491.229 193.333 491.269 193.293 491.269C193.466 491.259 193.639 491.249 193.812 491.259C193.851 491.259 194.137 491.3 193.886 491.259C193.975 491.274 194.058 491.289 194.142 491.31C194.315 491.35 194.478 491.405 194.641 491.461C194.903 491.551 194.463 491.355 194.74 491.506C194.829 491.556 194.922 491.602 195.011 491.652C195.189 491.753 195.357 491.869 195.525 491.984C195.791 492.171 195.391 491.864 195.638 492.07C195.732 492.146 195.821 492.226 195.91 492.307C196.063 492.448 196.211 492.589 196.359 492.735C196.665 493.042 196.956 493.364 197.243 493.687C197.608 494.094 198.334 494.094 198.704 493.687C199.094 493.253 199.094 492.634 198.704 492.196C197.598 490.967 196.349 489.648 194.69 489.27C193.93 489.099 193.096 489.084 192.35 489.335C192 489.456 191.664 489.612 191.368 489.839C191.027 490.096 190.8 490.398 190.519 490.715L190.46 490.781C190.371 490.861 190.381 490.861 190.479 490.781L190.41 490.826C190.465 490.791 190.524 490.776 190.588 490.771C190.652 490.746 190.79 490.866 190.598 490.741C190.548 490.71 190.361 490.559 190.573 490.741C190.479 490.665 190.395 490.584 190.311 490.494C190.262 490.438 190.218 490.383 190.168 490.328C190.099 490.237 190.109 490.252 190.198 490.368C190.168 490.328 190.139 490.287 190.114 490.247C189.788 489.769 189.546 489.24 189.235 488.751C188.885 488.192 188.45 487.638 187.863 487.326C187.038 486.888 186.145 486.908 185.306 487.286C184.392 487.704 183.775 488.53 183.41 489.451C183.045 490.373 183.015 491.466 183 492.473C182.99 493.022 183.479 493.551 184.032 493.525C184.585 493.5 185.054 493.062 185.064 492.473Z" fill="#AAC5AB"/>
<path id="Vector_7" d="M948.064 451.484C948.069 451.091 948.078 450.694 948.108 450.301C948.133 449.968 948.162 449.757 948.296 449.324C948.286 449.349 948.399 449.022 948.35 449.153C948.301 449.283 948.439 448.966 948.429 448.986C948.468 448.906 948.523 448.83 948.567 448.75C948.582 448.719 948.681 448.588 948.567 448.74C948.661 448.614 948.774 448.513 948.883 448.402C949.076 448.211 948.73 448.478 948.962 448.342C949.041 448.296 949.115 448.251 949.194 448.201C949.416 448.065 949.026 448.231 949.273 448.165C949.342 448.15 949.416 448.13 949.485 448.11C949.624 448.065 949.263 448.095 949.51 448.11C949.554 448.11 949.831 448.145 949.584 448.095C949.643 448.105 949.698 448.12 949.757 448.135C949.989 448.206 949.787 448.12 949.772 448.135C949.777 448.135 949.875 448.191 949.89 448.201C949.93 448.226 949.969 448.246 950.004 448.271C950.093 448.337 950.078 448.322 949.954 448.231C949.984 448.221 950.181 448.447 950.201 448.473C950.251 448.523 950.29 448.578 950.334 448.634C950.315 448.614 950.201 448.442 950.3 448.594C950.448 448.82 950.591 449.052 950.724 449.288C951.356 450.422 952.21 451.973 953.701 451.897C954.205 451.872 954.654 451.605 954.98 451.227C955.079 451.117 955.163 450.996 955.256 450.88C955.291 450.835 955.33 450.789 955.37 450.749C955.405 450.709 955.676 450.487 955.479 450.628C955.592 450.547 955.716 450.477 955.839 450.412C956.066 450.286 955.651 450.452 955.903 450.386C955.957 450.371 956.012 450.351 956.066 450.336C956.15 450.311 956.234 450.296 956.313 450.281C956.505 450.24 956.333 450.281 956.293 450.281C956.466 450.271 956.639 450.26 956.812 450.271C956.851 450.271 957.137 450.311 956.886 450.271C956.974 450.286 957.058 450.301 957.142 450.321C957.315 450.361 957.478 450.417 957.641 450.472C957.903 450.563 957.463 450.366 957.74 450.517C957.828 450.568 957.922 450.613 958.011 450.663C958.189 450.764 958.357 450.88 958.525 450.996C958.791 451.182 958.391 450.875 958.638 451.081C958.732 451.157 958.821 451.237 958.91 451.318C959.063 451.459 959.211 451.6 959.359 451.746C959.665 452.053 959.956 452.376 960.243 452.698C960.608 453.106 961.334 453.106 961.704 452.698C962.094 452.265 962.094 451.645 961.704 451.207C960.598 449.978 959.349 448.659 957.69 448.281C956.93 448.11 956.096 448.095 955.35 448.347C955 448.468 954.664 448.624 954.368 448.85C954.027 449.107 953.8 449.409 953.519 449.727L953.459 449.792C953.371 449.873 953.38 449.873 953.479 449.792L953.41 449.837C953.464 449.802 953.524 449.787 953.588 449.782C953.652 449.757 953.79 449.878 953.598 449.752C953.548 449.722 953.361 449.571 953.573 449.752C953.479 449.676 953.395 449.596 953.311 449.505C953.262 449.45 953.218 449.394 953.168 449.339C953.099 449.248 953.109 449.263 953.198 449.379C953.168 449.339 953.139 449.299 953.114 449.258C952.788 448.78 952.546 448.251 952.235 447.763C951.885 447.204 951.45 446.65 950.863 446.337C950.038 445.899 949.145 445.919 948.305 446.297C947.392 446.715 946.775 447.541 946.41 448.463C946.044 449.384 946.015 450.477 946 451.484C945.99 452.033 946.479 452.562 947.032 452.537C947.585 452.512 948.054 452.073 948.064 451.484Z" fill="#AAC5AB"/>
<path id="Vector_8" d="M99.0637 391.473C99.0686 391.08 99.0785 390.682 99.1081 390.289C99.1328 389.957 99.1624 389.746 99.2957 389.312C99.2859 389.338 99.3994 389.01 99.35 389.141C99.3007 389.272 99.4389 388.955 99.429 388.975C99.4685 388.894 99.5228 388.819 99.5673 388.738C99.5821 388.708 99.6808 388.577 99.5673 388.728C99.6611 388.602 99.7746 388.502 99.8832 388.391C100.076 388.2 99.7302 388.466 99.9622 388.33C100.041 388.285 100.115 388.24 100.194 388.189C100.416 388.053 100.026 388.22 100.273 388.154C100.342 388.139 100.416 388.119 100.485 388.099C100.624 388.053 100.263 388.084 100.51 388.099C100.555 388.099 100.831 388.134 100.584 388.084C100.643 388.094 100.698 388.109 100.757 388.124C100.989 388.194 100.787 388.109 100.772 388.124C100.777 388.124 100.875 388.179 100.89 388.189C100.93 388.215 100.969 388.235 101.004 388.26C101.093 388.325 101.078 388.31 100.954 388.22C100.984 388.21 101.182 388.436 101.201 388.461C101.251 388.512 101.29 388.567 101.335 388.623C101.315 388.602 101.201 388.431 101.3 388.582C101.448 388.809 101.591 389.041 101.725 389.277C102.357 390.41 103.211 391.961 104.701 391.886C105.205 391.861 105.654 391.594 105.98 391.216C106.079 391.105 106.163 390.984 106.257 390.869C106.291 390.823 106.331 390.778 106.37 390.738C106.405 390.697 106.676 390.476 106.479 390.617C106.592 390.536 106.716 390.466 106.839 390.4C107.066 390.274 106.651 390.441 106.903 390.375C106.958 390.36 107.012 390.34 107.066 390.325C107.15 390.3 107.234 390.284 107.313 390.269C107.506 390.229 107.333 390.269 107.293 390.269C107.466 390.259 107.639 390.249 107.812 390.259C107.851 390.259 108.137 390.3 107.886 390.259C107.975 390.274 108.058 390.289 108.142 390.31C108.315 390.35 108.478 390.405 108.641 390.461C108.903 390.551 108.463 390.355 108.74 390.506C108.829 390.556 108.922 390.602 109.011 390.652C109.189 390.753 109.357 390.869 109.525 390.984C109.791 391.171 109.391 390.864 109.638 391.07C109.732 391.146 109.821 391.226 109.91 391.307C110.063 391.448 110.211 391.589 110.359 391.735C110.665 392.042 110.956 392.364 111.243 392.687C111.608 393.094 112.334 393.094 112.704 392.687C113.094 392.253 113.094 391.634 112.704 391.196C111.598 389.967 110.349 388.648 108.69 388.27C107.93 388.099 107.096 388.084 106.35 388.335C106 388.456 105.664 388.612 105.368 388.839C105.027 389.096 104.8 389.398 104.519 389.715L104.46 389.781C104.371 389.861 104.381 389.861 104.479 389.781L104.41 389.826C104.465 389.791 104.524 389.776 104.588 389.771C104.652 389.746 104.79 389.866 104.598 389.741C104.548 389.71 104.361 389.559 104.573 389.741C104.479 389.665 104.395 389.584 104.311 389.494C104.262 389.438 104.218 389.383 104.168 389.328C104.099 389.237 104.109 389.252 104.198 389.368C104.168 389.328 104.139 389.287 104.114 389.247C103.788 388.769 103.546 388.24 103.235 387.751C102.885 387.192 102.45 386.638 101.863 386.326C101.038 385.888 100.145 385.908 99.3056 386.286C98.3923 386.704 97.7752 387.53 97.4099 388.451C97.0446 389.373 97.015 390.466 97.0001 391.473C96.9903 392.022 97.479 392.551 98.0319 392.525C98.5848 392.5 99.0538 392.062 99.0637 391.473Z" fill="#AAC5AB"/>
<path id="Vector_9" d="M919.064 373.473C919.069 373.08 919.079 372.682 919.108 372.289C919.133 371.957 919.162 371.746 919.296 371.312C919.286 371.338 919.399 371.01 919.35 371.141C919.301 371.272 919.439 370.955 919.429 370.975C919.469 370.894 919.523 370.819 919.567 370.738C919.582 370.708 919.681 370.577 919.567 370.728C919.661 370.602 919.775 370.502 919.883 370.391C920.076 370.2 919.73 370.466 919.962 370.33C920.041 370.285 920.115 370.24 920.194 370.189C920.416 370.053 920.026 370.22 920.273 370.154C920.342 370.139 920.416 370.119 920.485 370.099C920.624 370.053 920.263 370.084 920.51 370.099C920.555 370.099 920.831 370.134 920.584 370.084C920.643 370.094 920.698 370.109 920.757 370.124C920.989 370.194 920.787 370.109 920.772 370.124C920.777 370.124 920.875 370.179 920.89 370.189C920.93 370.215 920.969 370.235 921.004 370.26C921.093 370.325 921.078 370.31 920.954 370.22C920.984 370.21 921.182 370.436 921.201 370.461C921.251 370.512 921.29 370.567 921.335 370.623C921.315 370.602 921.201 370.431 921.3 370.582C921.448 370.809 921.591 371.041 921.725 371.277C922.357 372.41 923.211 373.961 924.701 373.886C925.205 373.861 925.654 373.594 925.98 373.216C926.079 373.105 926.163 372.984 926.257 372.869C926.291 372.823 926.331 372.778 926.37 372.738C926.405 372.697 926.676 372.476 926.479 372.617C926.592 372.536 926.716 372.466 926.839 372.4C927.066 372.274 926.651 372.441 926.903 372.375C926.958 372.36 927.012 372.34 927.066 372.325C927.15 372.3 927.234 372.284 927.313 372.269C927.506 372.229 927.333 372.269 927.293 372.269C927.466 372.259 927.639 372.249 927.812 372.259C927.851 372.259 928.137 372.3 927.886 372.259C927.975 372.274 928.058 372.289 928.142 372.31C928.315 372.35 928.478 372.405 928.641 372.461C928.903 372.551 928.463 372.355 928.74 372.506C928.829 372.556 928.922 372.602 929.011 372.652C929.189 372.753 929.357 372.869 929.525 372.984C929.791 373.171 929.391 372.864 929.638 373.07C929.732 373.146 929.821 373.226 929.91 373.307C930.063 373.448 930.211 373.589 930.359 373.735C930.665 374.042 930.956 374.364 931.243 374.687C931.608 375.094 932.334 375.094 932.704 374.687C933.094 374.253 933.094 373.634 932.704 373.196C931.598 371.967 930.349 370.648 928.69 370.27C927.93 370.099 927.096 370.084 926.35 370.335C926 370.456 925.664 370.612 925.368 370.839C925.027 371.096 924.8 371.398 924.519 371.715L924.46 371.781C924.371 371.861 924.381 371.861 924.479 371.781L924.41 371.826C924.465 371.791 924.524 371.776 924.588 371.771C924.652 371.746 924.79 371.866 924.598 371.741C924.548 371.71 924.361 371.559 924.573 371.741C924.479 371.665 924.395 371.584 924.311 371.494C924.262 371.438 924.218 371.383 924.168 371.328C924.099 371.237 924.109 371.252 924.198 371.368C924.168 371.328 924.139 371.287 924.114 371.247C923.788 370.769 923.546 370.24 923.235 369.751C922.885 369.192 922.45 368.638 921.863 368.326C921.038 367.888 920.145 367.908 919.306 368.286C918.392 368.704 917.775 369.53 917.41 370.451C917.045 371.373 917.015 372.466 917 373.473C916.99 374.022 917.479 374.551 918.032 374.525C918.585 374.5 919.054 374.062 919.064 373.473Z" fill="#AAC5AB"/>
<path id="Vector_10" d="M79.0637 488.473C79.0686 488.08 79.0785 487.682 79.1081 487.289C79.1328 486.957 79.1624 486.746 79.2957 486.312C79.2859 486.338 79.3994 486.01 79.35 486.141C79.3007 486.272 79.4389 485.955 79.429 485.975C79.4685 485.894 79.5228 485.819 79.5673 485.738C79.5821 485.708 79.6808 485.577 79.5673 485.728C79.6611 485.602 79.7746 485.502 79.8832 485.391C80.0757 485.2 79.7302 485.466 79.9622 485.33C80.0412 485.285 80.1152 485.24 80.1942 485.189C80.4164 485.053 80.0264 485.22 80.2732 485.154C80.3423 485.139 80.4164 485.119 80.4855 485.099C80.6237 485.053 80.2633 485.084 80.5102 485.099C80.5546 485.099 80.8311 485.134 80.5842 485.084C80.6435 485.094 80.6978 485.109 80.757 485.124C80.989 485.194 80.7866 485.109 80.7718 485.124C80.7768 485.124 80.8755 485.179 80.8903 485.189C80.9298 485.215 80.9693 485.235 81.0038 485.26C81.0927 485.325 81.0779 485.31 80.9545 485.22C80.9841 485.21 81.1816 485.436 81.2013 485.461C81.2507 485.512 81.2902 485.567 81.3346 485.623C81.3149 485.602 81.2013 485.431 81.3001 485.582C81.4482 485.809 81.5913 486.041 81.7246 486.277C82.3565 487.41 83.2106 488.961 84.7015 488.886C85.205 488.861 85.6543 488.594 85.9801 488.216C86.0788 488.105 86.1628 487.984 86.2565 487.869C86.2911 487.823 86.3306 487.778 86.3701 487.738C86.4047 487.697 86.6762 487.476 86.4787 487.617C86.5922 487.536 86.7157 487.466 86.8391 487.4C87.0662 487.274 86.6515 487.441 86.9033 487.375C86.9576 487.36 87.0119 487.34 87.0662 487.325C87.1501 487.3 87.234 487.284 87.313 487.269C87.5055 487.229 87.3328 487.269 87.2933 487.269C87.4661 487.259 87.6388 487.249 87.8116 487.259C87.8511 487.259 88.1375 487.3 87.8857 487.259C87.9745 487.274 88.0585 487.289 88.1424 487.31C88.3152 487.35 88.4781 487.405 88.641 487.461C88.9026 487.551 88.4633 487.355 88.7397 487.506C88.8286 487.556 88.9224 487.602 89.0113 487.652C89.189 487.753 89.3568 487.869 89.5247 487.984C89.7913 488.171 89.3914 487.864 89.6382 488.07C89.732 488.146 89.8209 488.226 89.9097 488.307C90.0628 488.448 90.2109 488.589 90.359 488.735C90.6651 489.042 90.9563 489.364 91.2427 489.687C91.608 490.094 92.3337 490.094 92.7039 489.687C93.0939 489.253 93.0939 488.634 92.7039 488.196C91.5981 486.967 90.3491 485.648 88.6904 485.27C87.9301 485.099 87.0958 485.084 86.3503 485.335C85.9998 485.456 85.6641 485.612 85.3679 485.839C85.0273 486.096 84.8002 486.398 84.5188 486.715L84.4596 486.781C84.3707 486.861 84.3806 486.861 84.4793 486.781L84.4102 486.826C84.4645 486.791 84.5238 486.776 84.5879 486.771C84.6521 486.746 84.7903 486.866 84.5978 486.741C84.5484 486.71 84.3608 486.559 84.5731 486.741C84.4793 486.665 84.3954 486.584 84.3115 486.494C84.2621 486.438 84.2177 486.383 84.1683 486.328C84.0992 486.237 84.1091 486.252 84.1979 486.368C84.1683 486.328 84.1387 486.287 84.114 486.247C83.7882 485.769 83.5463 485.24 83.2353 484.751C82.8848 484.192 82.4503 483.638 81.8628 483.326C81.0384 482.888 80.1449 482.908 79.3056 483.286C78.3923 483.704 77.7752 484.53 77.4099 485.451C77.0446 486.373 77.015 487.466 77.0001 488.473C76.9903 489.022 77.479 489.551 78.0319 489.525C78.5848 489.5 79.0538 489.062 79.0637 488.473Z" fill="#AAC5AB"/>
<path id="Vector_11" d="M824.064 488.473C824.069 488.08 824.079 487.682 824.108 487.289C824.133 486.957 824.162 486.746 824.296 486.312C824.286 486.338 824.399 486.01 824.35 486.141C824.301 486.272 824.439 485.955 824.429 485.975C824.469 485.894 824.523 485.819 824.567 485.738C824.582 485.708 824.681 485.577 824.567 485.728C824.661 485.602 824.775 485.502 824.883 485.391C825.076 485.2 824.73 485.466 824.962 485.33C825.041 485.285 825.115 485.24 825.194 485.189C825.416 485.053 825.026 485.22 825.273 485.154C825.342 485.139 825.416 485.119 825.485 485.099C825.624 485.053 825.263 485.084 825.51 485.099C825.555 485.099 825.831 485.134 825.584 485.084C825.643 485.094 825.698 485.109 825.757 485.124C825.989 485.194 825.787 485.109 825.772 485.124C825.777 485.124 825.875 485.179 825.89 485.189C825.93 485.215 825.969 485.235 826.004 485.26C826.093 485.325 826.078 485.31 825.954 485.22C825.984 485.21 826.182 485.436 826.201 485.461C826.251 485.512 826.29 485.567 826.335 485.623C826.315 485.602 826.201 485.431 826.3 485.582C826.448 485.809 826.591 486.041 826.725 486.277C827.357 487.41 828.211 488.961 829.701 488.886C830.205 488.861 830.654 488.594 830.98 488.216C831.079 488.105 831.163 487.984 831.257 487.869C831.291 487.823 831.331 487.778 831.37 487.738C831.405 487.697 831.676 487.476 831.479 487.617C831.592 487.536 831.716 487.466 831.839 487.4C832.066 487.274 831.651 487.441 831.903 487.375C831.958 487.36 832.012 487.34 832.066 487.325C832.15 487.3 832.234 487.284 832.313 487.269C832.506 487.229 832.333 487.269 832.293 487.269C832.466 487.259 832.639 487.249 832.812 487.259C832.851 487.259 833.137 487.3 832.886 487.259C832.975 487.274 833.058 487.289 833.142 487.31C833.315 487.35 833.478 487.405 833.641 487.461C833.903 487.551 833.463 487.355 833.74 487.506C833.829 487.556 833.922 487.602 834.011 487.652C834.189 487.753 834.357 487.869 834.525 487.984C834.791 488.171 834.391 487.864 834.638 488.07C834.732 488.146 834.821 488.226 834.91 488.307C835.063 488.448 835.211 488.589 835.359 488.735C835.665 489.042 835.956 489.364 836.243 489.687C836.608 490.094 837.334 490.094 837.704 489.687C838.094 489.253 838.094 488.634 837.704 488.196C836.598 486.967 835.349 485.648 833.69 485.27C832.93 485.099 832.096 485.084 831.35 485.335C831 485.456 830.664 485.612 830.368 485.839C830.027 486.096 829.8 486.398 829.519 486.715L829.46 486.781C829.371 486.861 829.381 486.861 829.479 486.781L829.41 486.826C829.465 486.791 829.524 486.776 829.588 486.771C829.652 486.746 829.79 486.866 829.598 486.741C829.548 486.71 829.361 486.559 829.573 486.741C829.479 486.665 829.395 486.584 829.311 486.494C829.262 486.438 829.218 486.383 829.168 486.328C829.099 486.237 829.109 486.252 829.198 486.368C829.168 486.328 829.139 486.287 829.114 486.247C828.788 485.769 828.546 485.24 828.235 484.751C827.885 484.192 827.45 483.638 826.863 483.326C826.038 482.888 825.145 482.908 824.306 483.286C823.392 483.704 822.775 484.53 822.41 485.451C822.045 486.373 822.015 487.466 822 488.473C821.99 489.022 822.479 489.551 823.032 489.525C823.585 489.5 824.054 489.062 824.064 488.473Z" fill="#AAC5AB"/>
<path id="Vector_12" d="M166.064 587.473C166.069 587.08 166.079 586.682 166.108 586.289C166.133 585.957 166.162 585.746 166.296 585.312C166.286 585.338 166.399 585.01 166.35 585.141C166.301 585.272 166.439 584.955 166.429 584.975C166.469 584.894 166.523 584.819 166.567 584.738C166.582 584.708 166.681 584.577 166.567 584.728C166.661 584.602 166.775 584.502 166.883 584.391C167.076 584.2 166.73 584.466 166.962 584.33C167.041 584.285 167.115 584.24 167.194 584.189C167.416 584.053 167.026 584.22 167.273 584.154C167.342 584.139 167.416 584.119 167.485 584.099C167.624 584.053 167.263 584.084 167.51 584.099C167.555 584.099 167.831 584.134 167.584 584.084C167.643 584.094 167.698 584.109 167.757 584.124C167.989 584.194 167.787 584.109 167.772 584.124C167.777 584.124 167.875 584.179 167.89 584.189C167.93 584.215 167.969 584.235 168.004 584.26C168.093 584.325 168.078 584.31 167.954 584.22C167.984 584.21 168.182 584.436 168.201 584.461C168.251 584.512 168.29 584.567 168.335 584.623C168.315 584.602 168.201 584.431 168.3 584.582C168.448 584.809 168.591 585.041 168.725 585.277C169.357 586.41 170.211 587.961 171.701 587.886C172.205 587.861 172.654 587.594 172.98 587.216C173.079 587.105 173.163 586.984 173.257 586.869C173.291 586.823 173.331 586.778 173.37 586.738C173.405 586.697 173.676 586.476 173.479 586.617C173.592 586.536 173.716 586.466 173.839 586.4C174.066 586.274 173.651 586.441 173.903 586.375C173.958 586.36 174.012 586.34 174.066 586.325C174.15 586.3 174.234 586.284 174.313 586.269C174.506 586.229 174.333 586.269 174.293 586.269C174.466 586.259 174.639 586.249 174.812 586.259C174.851 586.259 175.137 586.3 174.886 586.259C174.975 586.274 175.058 586.289 175.142 586.31C175.315 586.35 175.478 586.405 175.641 586.461C175.903 586.551 175.463 586.355 175.74 586.506C175.829 586.556 175.922 586.602 176.011 586.652C176.189 586.753 176.357 586.869 176.525 586.984C176.791 587.171 176.391 586.864 176.638 587.07C176.732 587.146 176.821 587.226 176.91 587.307C177.063 587.448 177.211 587.589 177.359 587.735C177.665 588.042 177.956 588.364 178.243 588.687C178.608 589.094 179.334 589.094 179.704 588.687C180.094 588.253 180.094 587.634 179.704 587.196C178.598 585.967 177.349 584.648 175.69 584.27C174.93 584.099 174.096 584.084 173.35 584.335C173 584.456 172.664 584.612 172.368 584.839C172.027 585.096 171.8 585.398 171.519 585.715L171.46 585.781C171.371 585.861 171.381 585.861 171.479 585.781L171.41 585.826C171.465 585.791 171.524 585.776 171.588 585.771C171.652 585.746 171.79 585.866 171.598 585.741C171.548 585.71 171.361 585.559 171.573 585.741C171.479 585.665 171.395 585.584 171.311 585.494C171.262 585.438 171.218 585.383 171.168 585.328C171.099 585.237 171.109 585.252 171.198 585.368C171.168 585.328 171.139 585.287 171.114 585.247C170.788 584.769 170.546 584.24 170.235 583.751C169.885 583.192 169.45 582.638 168.863 582.326C168.038 581.888 167.145 581.908 166.306 582.286C165.392 582.704 164.775 583.53 164.41 584.451C164.045 585.373 164.015 586.466 164 587.473C163.99 588.022 164.479 588.551 165.032 588.525C165.585 588.5 166.054 588.062 166.064 587.473Z" fill="#AAC5AB"/>
<path id="Vector_13" d="M263.064 711.473C263.069 711.08 263.079 710.682 263.108 710.289C263.133 709.957 263.162 709.746 263.296 709.312C263.286 709.338 263.399 709.01 263.35 709.141C263.301 709.272 263.439 708.955 263.429 708.975C263.469 708.894 263.523 708.819 263.567 708.738C263.582 708.708 263.681 708.577 263.567 708.728C263.661 708.602 263.775 708.502 263.883 708.391C264.076 708.2 263.73 708.466 263.962 708.33C264.041 708.285 264.115 708.24 264.194 708.189C264.416 708.053 264.026 708.22 264.273 708.154C264.342 708.139 264.416 708.119 264.485 708.099C264.624 708.053 264.263 708.084 264.51 708.099C264.555 708.099 264.831 708.134 264.584 708.084C264.643 708.094 264.698 708.109 264.757 708.124C264.989 708.194 264.787 708.109 264.772 708.124C264.777 708.124 264.875 708.179 264.89 708.189C264.93 708.215 264.969 708.235 265.004 708.26C265.093 708.325 265.078 708.31 264.954 708.22C264.984 708.21 265.182 708.436 265.201 708.461C265.251 708.512 265.29 708.567 265.335 708.623C265.315 708.602 265.201 708.431 265.3 708.582C265.448 708.809 265.591 709.041 265.725 709.277C266.357 710.41 267.211 711.961 268.701 711.886C269.205 711.861 269.654 711.594 269.98 711.216C270.079 711.105 270.163 710.984 270.257 710.869C270.291 710.823 270.331 710.778 270.37 710.738C270.405 710.697 270.676 710.476 270.479 710.617C270.592 710.536 270.716 710.466 270.839 710.4C271.066 710.274 270.651 710.441 270.903 710.375C270.958 710.36 271.012 710.34 271.066 710.325C271.15 710.3 271.234 710.284 271.313 710.269C271.506 710.229 271.333 710.269 271.293 710.269C271.466 710.259 271.639 710.249 271.812 710.259C271.851 710.259 272.137 710.3 271.886 710.259C271.975 710.274 272.058 710.289 272.142 710.31C272.315 710.35 272.478 710.405 272.641 710.461C272.903 710.551 272.463 710.355 272.74 710.506C272.829 710.556 272.922 710.602 273.011 710.652C273.189 710.753 273.357 710.869 273.525 710.984C273.791 711.171 273.391 710.864 273.638 711.07C273.732 711.146 273.821 711.226 273.91 711.307C274.063 711.448 274.211 711.589 274.359 711.735C274.665 712.042 274.956 712.364 275.243 712.687C275.608 713.094 276.334 713.094 276.704 712.687C277.094 712.253 277.094 711.634 276.704 711.196C275.598 709.967 274.349 708.648 272.69 708.27C271.93 708.099 271.096 708.084 270.35 708.335C270 708.456 269.664 708.612 269.368 708.839C269.027 709.096 268.8 709.398 268.519 709.715L268.46 709.781C268.371 709.861 268.381 709.861 268.479 709.781L268.41 709.826C268.465 709.791 268.524 709.776 268.588 709.771C268.652 709.746 268.79 709.866 268.598 709.741C268.548 709.71 268.361 709.559 268.573 709.741C268.479 709.665 268.395 709.584 268.311 709.494C268.262 709.438 268.218 709.383 268.168 709.328C268.099 709.237 268.109 709.252 268.198 709.368C268.168 709.328 268.139 709.287 268.114 709.247C267.788 708.769 267.546 708.24 267.235 707.751C266.885 707.192 266.45 706.638 265.863 706.326C265.038 705.888 264.145 705.908 263.306 706.286C262.392 706.704 261.775 707.53 261.41 708.451C261.045 709.373 261.015 710.466 261 711.473C260.99 712.022 261.479 712.551 262.032 712.525C262.585 712.5 263.054 712.062 263.064 711.473Z" fill="#AAC5AB"/>
<path id="Vector_14" d="M911.064 587.473C911.069 587.08 911.079 586.682 911.108 586.289C911.133 585.957 911.162 585.746 911.296 585.312C911.286 585.338 911.399 585.01 911.35 585.141C911.301 585.272 911.439 584.955 911.429 584.975C911.469 584.894 911.523 584.819 911.567 584.738C911.582 584.708 911.681 584.577 911.567 584.728C911.661 584.602 911.775 584.502 911.883 584.391C912.076 584.2 911.73 584.466 911.962 584.33C912.041 584.285 912.115 584.24 912.194 584.189C912.416 584.053 912.026 584.22 912.273 584.154C912.342 584.139 912.416 584.119 912.485 584.099C912.624 584.053 912.263 584.084 912.51 584.099C912.555 584.099 912.831 584.134 912.584 584.084C912.643 584.094 912.698 584.109 912.757 584.124C912.989 584.194 912.787 584.109 912.772 584.124C912.777 584.124 912.875 584.179 912.89 584.189C912.93 584.215 912.969 584.235 913.004 584.26C913.093 584.325 913.078 584.31 912.954 584.22C912.984 584.21 913.182 584.436 913.201 584.461C913.251 584.512 913.29 584.567 913.335 584.623C913.315 584.602 913.201 584.431 913.3 584.582C913.448 584.809 913.591 585.041 913.725 585.277C914.357 586.41 915.211 587.961 916.701 587.886C917.205 587.861 917.654 587.594 917.98 587.216C918.079 587.105 918.163 586.984 918.257 586.869C918.291 586.823 918.331 586.778 918.37 586.738C918.405 586.697 918.676 586.476 918.479 586.617C918.592 586.536 918.716 586.466 918.839 586.4C919.066 586.274 918.651 586.441 918.903 586.375C918.958 586.36 919.012 586.34 919.066 586.325C919.15 586.3 919.234 586.284 919.313 586.269C919.506 586.229 919.333 586.269 919.293 586.269C919.466 586.259 919.639 586.249 919.812 586.259C919.851 586.259 920.137 586.3 919.886 586.259C919.975 586.274 920.058 586.289 920.142 586.31C920.315 586.35 920.478 586.405 920.641 586.461C920.903 586.551 920.463 586.355 920.74 586.506C920.829 586.556 920.922 586.602 921.011 586.652C921.189 586.753 921.357 586.869 921.525 586.984C921.791 587.171 921.391 586.864 921.638 587.07C921.732 587.146 921.821 587.226 921.91 587.307C922.063 587.448 922.211 587.589 922.359 587.735C922.665 588.042 922.956 588.364 923.243 588.687C923.608 589.094 924.334 589.094 924.704 588.687C925.094 588.253 925.094 587.634 924.704 587.196C923.598 585.967 922.349 584.648 920.69 584.27C919.93 584.099 919.096 584.084 918.35 584.335C918 584.456 917.664 584.612 917.368 584.839C917.027 585.096 916.8 585.398 916.519 585.715L916.46 585.781C916.371 585.861 916.381 585.861 916.479 585.781L916.41 585.826C916.465 585.791 916.524 585.776 916.588 585.771C916.652 585.746 916.79 585.866 916.598 585.741C916.548 585.71 916.361 585.559 916.573 585.741C916.479 585.665 916.395 585.584 916.311 585.494C916.262 585.438 916.218 585.383 916.168 585.328C916.099 585.237 916.109 585.252 916.198 585.368C916.168 585.328 916.139 585.287 916.114 585.247C915.788 584.769 915.546 584.24 915.235 583.751C914.885 583.192 914.45 582.638 913.863 582.326C913.038 581.888 912.145 581.908 911.306 582.286C910.392 582.704 909.775 583.53 909.41 584.451C909.045 585.373 909.015 586.466 909 587.473C908.99 588.022 909.479 588.551 910.032 588.525C910.585 588.5 911.054 588.062 911.064 587.473Z" fill="#AAC5AB"/>
<path id="Vector_15" d="M79.0637 696.473C79.0686 696.08 79.0785 695.682 79.1081 695.289C79.1328 694.957 79.1624 694.746 79.2957 694.312C79.2859 694.338 79.3994 694.01 79.35 694.141C79.3007 694.272 79.4389 693.955 79.429 693.975C79.4685 693.894 79.5228 693.819 79.5673 693.738C79.5821 693.708 79.6808 693.577 79.5673 693.728C79.6611 693.602 79.7746 693.502 79.8832 693.391C80.0757 693.2 79.7302 693.466 79.9622 693.33C80.0412 693.285 80.1152 693.24 80.1942 693.189C80.4164 693.053 80.0264 693.22 80.2732 693.154C80.3423 693.139 80.4164 693.119 80.4855 693.099C80.6237 693.053 80.2633 693.084 80.5102 693.099C80.5546 693.099 80.8311 693.134 80.5842 693.084C80.6435 693.094 80.6978 693.109 80.757 693.124C80.989 693.194 80.7866 693.109 80.7718 693.124C80.7768 693.124 80.8755 693.179 80.8903 693.189C80.9298 693.215 80.9693 693.235 81.0038 693.26C81.0927 693.325 81.0779 693.31 80.9545 693.22C80.9841 693.21 81.1816 693.436 81.2013 693.461C81.2507 693.512 81.2902 693.567 81.3346 693.623C81.3149 693.602 81.2013 693.431 81.3001 693.582C81.4482 693.809 81.5913 694.041 81.7246 694.277C82.3565 695.41 83.2106 696.961 84.7015 696.886C85.205 696.861 85.6543 696.594 85.9801 696.216C86.0788 696.105 86.1628 695.984 86.2565 695.869C86.2911 695.823 86.3306 695.778 86.3701 695.738C86.4047 695.697 86.6762 695.476 86.4787 695.617C86.5922 695.536 86.7157 695.466 86.8391 695.4C87.0662 695.274 86.6515 695.441 86.9033 695.375C86.9576 695.36 87.0119 695.34 87.0662 695.325C87.1501 695.3 87.234 695.284 87.313 695.269C87.5055 695.229 87.3328 695.269 87.2933 695.269C87.4661 695.259 87.6388 695.249 87.8116 695.259C87.8511 695.259 88.1375 695.3 87.8857 695.259C87.9745 695.274 88.0585 695.289 88.1424 695.31C88.3152 695.35 88.4781 695.405 88.641 695.461C88.9026 695.551 88.4633 695.355 88.7397 695.506C88.8286 695.556 88.9224 695.602 89.0113 695.652C89.189 695.753 89.3568 695.869 89.5247 695.984C89.7913 696.171 89.3914 695.864 89.6382 696.07C89.732 696.146 89.8209 696.226 89.9097 696.307C90.0628 696.448 90.2109 696.589 90.359 696.735C90.6651 697.042 90.9563 697.364 91.2427 697.687C91.608 698.094 92.3337 698.094 92.7039 697.687C93.0939 697.253 93.0939 696.634 92.7039 696.196C91.5981 694.967 90.3491 693.648 88.6904 693.27C87.9301 693.099 87.0958 693.084 86.3503 693.335C85.9998 693.456 85.6641 693.612 85.3679 693.839C85.0273 694.096 84.8002 694.398 84.5188 694.715L84.4596 694.781C84.3707 694.861 84.3806 694.861 84.4793 694.781L84.4102 694.826C84.4645 694.791 84.5238 694.776 84.5879 694.771C84.6521 694.746 84.7903 694.866 84.5978 694.741C84.5484 694.71 84.3608 694.559 84.5731 694.741C84.4793 694.665 84.3954 694.584 84.3115 694.494C84.2621 694.438 84.2177 694.383 84.1683 694.328C84.0992 694.237 84.1091 694.252 84.1979 694.368C84.1683 694.328 84.1387 694.287 84.114 694.247C83.7882 693.769 83.5463 693.24 83.2353 692.751C82.8848 692.192 82.4503 691.638 81.8628 691.326C81.0384 690.888 80.1449 690.908 79.3056 691.286C78.3923 691.704 77.7752 692.53 77.4099 693.451C77.0446 694.373 77.015 695.466 77.0001 696.473C76.9903 697.022 77.479 697.551 78.0319 697.525C78.5848 697.5 79.0538 697.062 79.0637 696.473Z" fill="#AAC5AB"/>
<path id="Vector_16" d="M774.064 696.473C774.069 696.08 774.079 695.682 774.108 695.289C774.133 694.957 774.162 694.746 774.296 694.312C774.286 694.338 774.399 694.01 774.35 694.141C774.301 694.272 774.439 693.955 774.429 693.975C774.469 693.894 774.523 693.819 774.567 693.738C774.582 693.708 774.681 693.577 774.567 693.728C774.661 693.602 774.775 693.502 774.883 693.391C775.076 693.2 774.73 693.466 774.962 693.33C775.041 693.285 775.115 693.24 775.194 693.189C775.416 693.053 775.026 693.22 775.273 693.154C775.342 693.139 775.416 693.119 775.485 693.099C775.624 693.053 775.263 693.084 775.51 693.099C775.555 693.099 775.831 693.134 775.584 693.084C775.643 693.094 775.698 693.109 775.757 693.124C775.989 693.194 775.787 693.109 775.772 693.124C775.777 693.124 775.875 693.179 775.89 693.189C775.93 693.215 775.969 693.235 776.004 693.26C776.093 693.325 776.078 693.31 775.954 693.22C775.984 693.21 776.182 693.436 776.201 693.461C776.251 693.512 776.29 693.567 776.335 693.623C776.315 693.602 776.201 693.431 776.3 693.582C776.448 693.809 776.591 694.041 776.725 694.277C777.357 695.41 778.211 696.961 779.701 696.886C780.205 696.861 780.654 696.594 780.98 696.216C781.079 696.105 781.163 695.984 781.257 695.869C781.291 695.823 781.331 695.778 781.37 695.738C781.405 695.697 781.676 695.476 781.479 695.617C781.592 695.536 781.716 695.466 781.839 695.4C782.066 695.274 781.651 695.441 781.903 695.375C781.958 695.36 782.012 695.34 782.066 695.325C782.15 695.3 782.234 695.284 782.313 695.269C782.506 695.229 782.333 695.269 782.293 695.269C782.466 695.259 782.639 695.249 782.812 695.259C782.851 695.259 783.137 695.3 782.886 695.259C782.975 695.274 783.058 695.289 783.142 695.31C783.315 695.35 783.478 695.405 783.641 695.461C783.903 695.551 783.463 695.355 783.74 695.506C783.829 695.556 783.922 695.602 784.011 695.652C784.189 695.753 784.357 695.869 784.525 695.984C784.791 696.171 784.391 695.864 784.638 696.07C784.732 696.146 784.821 696.226 784.91 696.307C785.063 696.448 785.211 696.589 785.359 696.735C785.665 697.042 785.956 697.364 786.243 697.687C786.608 698.094 787.334 698.094 787.704 697.687C788.094 697.253 788.094 696.634 787.704 696.196C786.598 694.967 785.349 693.648 783.69 693.27C782.93 693.099 782.096 693.084 781.35 693.335C781 693.456 780.664 693.612 780.368 693.839C780.027 694.096 779.8 694.398 779.519 694.715L779.46 694.781C779.371 694.861 779.381 694.861 779.479 694.781L779.41 694.826C779.465 694.791 779.524 694.776 779.588 694.771C779.652 694.746 779.79 694.866 779.598 694.741C779.548 694.71 779.361 694.559 779.573 694.741C779.479 694.665 779.395 694.584 779.311 694.494C779.262 694.438 779.218 694.383 779.168 694.328C779.099 694.237 779.109 694.252 779.198 694.368C779.168 694.328 779.139 694.287 779.114 694.247C778.788 693.769 778.546 693.24 778.235 692.751C777.885 692.192 777.45 691.638 776.863 691.326C776.038 690.888 775.145 690.908 774.306 691.286C773.392 691.704 772.775 692.53 772.41 693.451C772.045 694.373 772.015 695.466 772 696.473C771.99 697.022 772.479 697.551 773.032 697.525C773.585 697.5 774.054 697.062 774.064 696.473Z" fill="#AAC5AB"/>
</g>
<g id="flower_purple">
<path id="Vector_17" opacity="0.5" d="M189.231 418.025C194.361 418.025 198.519 417.162 198.519 416.096C198.519 415.031 194.361 414.167 189.231 414.167C184.101 414.167 179.943 415.031 179.943 416.096C179.943 417.162 184.101 418.025 189.231 418.025Z" fill="black" fill-opacity="0.1"/>
<path id="Vector_18" d="M206.09 402.1C205.214 400.487 203.321 400.171 201.639 400.206C199.29 400.276 197.012 400.978 194.944 402.065C192.841 403.188 190.914 404.731 189.231 406.45C186.042 403.258 182.186 400.732 177.63 400.276C176.333 400.136 174.861 400.171 173.669 400.802C172.688 401.328 172.127 402.346 171.987 403.433C171.811 404.626 172.337 405.748 173.143 406.59C173.949 407.432 175.106 408.063 176.123 408.66C177.069 409.221 178.015 409.712 178.997 410.203C181.38 411.326 183.869 412.273 186.462 412.904C187.444 413.15 188.495 412.834 189.266 412.167C189.967 412.834 190.949 413.185 192 412.904C196.311 411.852 200.622 410.028 204.268 407.467C204.968 406.976 205.634 406.45 206.055 405.678C206.651 404.556 206.686 403.258 206.055 402.17L206.09 402.1ZM201.183 402.416C201.218 402.381 201.253 402.346 201.393 402.276C201.358 402.346 201.253 402.381 201.183 402.451V402.416ZM179.733 406.73C179.733 406.73 179.768 406.73 179.803 406.765C179.803 406.765 179.733 406.765 179.733 406.73ZM177.595 406.134C177.595 406.134 177.595 406.134 177.56 406.134H177.595ZM177.314 402.416C177.244 402.346 177.139 402.311 177.104 402.24C177.209 402.346 177.244 402.346 177.314 402.381V402.416ZM195.505 408.73C195.505 408.73 195.61 408.66 195.61 408.625C195.61 408.66 195.54 408.695 195.47 408.73H195.505Z" fill="#AAC5AB"/>
<path id="Vector_19" d="M186.287 393.331V412.974C186.287 414.518 187.654 415.991 189.231 415.921C190.808 415.85 192.175 414.623 192.175 412.974V393.331C192.175 391.787 190.808 390.314 189.231 390.384C187.654 390.455 186.287 391.682 186.287 393.331Z" fill="#AAC5AB"/>
<path id="Vector_20" d="M208.403 373.758C207.878 372.53 207.177 371.618 206.125 370.811C204.723 369.724 203.426 369.443 201.674 369.233C200.482 369.092 199.29 369.022 198.099 369.022C198.064 368.847 198.029 368.636 197.959 368.461C196.872 364.848 194.839 362.287 191.86 360.043C189.827 358.499 186.497 358.815 184.429 360.043C182.046 361.446 180.994 363.761 180.784 366.392C180.714 367.058 180.714 367.76 180.679 368.426C179.522 368.11 178.366 367.83 177.244 367.514C173.529 366.532 169.078 368.742 168.201 372.67C167.325 376.529 169.358 380.668 173.354 381.72C173.949 381.861 174.545 382.036 175.141 382.176C174.37 385.018 174.405 388.28 175.316 391.016C176.123 393.506 177.875 395.436 180.469 396.172C182.782 396.804 186.042 396.242 187.619 394.278C188.145 393.611 188.705 392.945 189.231 392.279C190.773 393.682 192.526 394.769 194.664 395.4C197.187 396.137 199.991 395.365 201.814 393.506C203.531 391.787 204.618 388.736 203.707 386.35C203.496 385.859 203.356 385.333 203.181 384.807C204.548 384.07 205.845 383.123 206.896 381.79C208.824 379.44 209.665 376.704 208.403 373.758ZM193.612 386.842C194.138 386.28 194.173 386.456 193.612 386.842V386.842Z" fill="#C0B6E8"/>
<path id="Vector_21" d="M189.371 388.385C198.835 388.385 198.87 373.652 189.371 373.652C179.873 373.652 179.873 388.385 189.371 388.385Z" fill="#ECEFBB"/>
</g>
<g id="flower_purple_2">
<path id="Vector_22" opacity="0.5" d="M832.986 418.025C827.856 418.025 823.698 417.162 823.698 416.096C823.698 415.031 827.856 414.167 832.986 414.167C838.116 414.167 842.274 415.031 842.274 416.096C842.274 417.162 838.116 418.025 832.986 418.025Z" fill="black" fill-opacity="0.1"/>
<path id="Vector_23" d="M816.127 402.1C817.003 400.487 818.896 400.171 820.578 400.206C822.927 400.276 825.205 400.978 827.273 402.065C829.376 403.188 831.304 404.731 832.986 406.45C836.175 403.258 840.031 400.732 844.587 400.276C845.884 400.136 847.356 400.171 848.548 400.802C849.529 401.328 850.09 402.346 850.23 403.433C850.406 404.626 849.88 405.748 849.074 406.59C848.268 407.432 847.111 408.063 846.095 408.66C845.148 409.221 844.202 409.712 843.22 410.203C840.837 411.326 838.349 412.273 835.755 412.904C834.773 413.15 833.722 412.834 832.951 412.167C832.25 412.834 831.269 413.185 830.217 412.904C825.906 411.852 821.595 410.028 817.95 407.467C817.249 406.976 816.583 406.45 816.162 405.678C815.566 404.556 815.531 403.258 816.162 402.17L816.127 402.1ZM821.034 402.416C820.999 402.381 820.964 402.346 820.824 402.276C820.859 402.346 820.964 402.381 821.034 402.451V402.416ZM842.484 406.73C842.484 406.73 842.449 406.73 842.414 406.765C842.414 406.765 842.484 406.765 842.484 406.73ZM844.622 406.134C844.622 406.134 844.622 406.134 844.658 406.134H844.622ZM844.903 402.416C844.973 402.346 845.078 402.311 845.113 402.24C845.008 402.346 844.973 402.346 844.903 402.381V402.416ZM826.712 408.73C826.712 408.73 826.607 408.66 826.607 408.625C826.607 408.66 826.677 408.695 826.747 408.73H826.712Z" fill="#AAC5AB"/>
<path id="Vector_24" d="M835.93 393.331V412.974C835.93 414.518 834.563 415.991 832.986 415.921C831.409 415.85 830.042 414.623 830.042 412.974V393.331C830.042 391.787 831.409 390.314 832.986 390.384C834.563 390.455 835.93 391.682 835.93 393.331Z" fill="#AAC5AB"/>
<path id="Vector_25" d="M813.814 373.758C814.339 372.53 815.04 371.618 816.092 370.811C817.494 369.724 818.791 369.443 820.543 369.233C821.735 369.092 822.927 369.022 824.118 369.022C824.153 368.847 824.188 368.636 824.258 368.461C825.345 364.848 827.378 362.287 830.357 360.043C832.39 358.499 835.72 358.815 837.788 360.043C840.171 361.446 841.223 363.761 841.433 366.392C841.503 367.058 841.503 367.76 841.538 368.426C842.695 368.11 843.851 367.83 844.973 367.514C848.688 366.532 853.139 368.742 854.016 372.67C854.892 376.529 852.859 380.668 848.863 381.72C848.268 381.861 847.672 382.036 847.076 382.176C847.847 385.018 847.812 388.28 846.901 391.016C846.094 393.506 844.342 395.436 841.748 396.172C839.435 396.804 836.175 396.242 834.598 394.278C834.072 393.611 833.512 392.945 832.986 392.279C831.444 393.682 829.691 394.769 827.553 395.4C825.03 396.137 822.226 395.365 820.403 393.506C818.686 391.787 817.599 388.736 818.51 386.35C818.721 385.859 818.861 385.333 819.036 384.807C817.669 384.07 816.372 383.123 815.321 381.79C813.393 379.44 812.552 376.704 813.814 373.758ZM828.605 386.842C828.079 386.28 828.044 386.456 828.605 386.842V386.842Z" fill="#C0B6E8"/>
<path id="Vector_26" d="M832.846 388.385C823.382 388.385 823.347 373.652 832.846 373.652C842.344 373.652 842.344 388.385 832.846 388.385Z" fill="#ECEFBB"/>
</g>
<g id="flower_purple_3">
<path id="Vector_27" opacity="0.5" d="M192.231 727.025C197.361 727.025 201.519 726.161 201.519 725.096C201.519 724.031 197.361 723.167 192.231 723.167C187.101 723.167 182.943 724.031 182.943 725.096C182.943 726.161 187.101 727.025 192.231 727.025Z" fill="black" fill-opacity="0.1"/>
<path id="Vector_28" d="M209.09 711.1C208.214 709.487 206.321 709.171 204.639 709.206C202.29 709.276 200.012 709.978 197.944 711.065C195.841 712.188 193.914 713.731 192.231 715.45C189.042 712.258 185.186 709.732 180.63 709.276C179.333 709.136 177.861 709.171 176.669 709.802C175.688 710.328 175.127 711.346 174.987 712.433C174.811 713.626 175.337 714.748 176.143 715.59C176.949 716.432 178.106 717.063 179.123 717.66C180.069 718.221 181.015 718.712 181.997 719.203C184.38 720.326 186.869 721.273 189.462 721.904C190.444 722.15 191.495 721.834 192.266 721.167C192.967 721.834 193.949 722.185 195 721.904C199.311 720.852 203.622 719.028 207.268 716.467C207.968 715.976 208.634 715.45 209.055 714.678C209.651 713.556 209.686 712.258 209.055 711.17L209.09 711.1ZM204.183 711.416C204.218 711.381 204.253 711.346 204.393 711.276C204.358 711.346 204.253 711.381 204.183 711.451V711.416ZM182.733 715.73C182.733 715.73 182.768 715.73 182.803 715.765C182.803 715.765 182.733 715.765 182.733 715.73ZM180.595 715.134C180.595 715.134 180.595 715.134 180.56 715.134H180.595ZM180.314 711.416C180.244 711.346 180.139 711.311 180.104 711.24C180.209 711.346 180.244 711.346 180.314 711.381V711.416ZM198.505 717.73C198.505 717.73 198.61 717.66 198.61 717.625C198.61 717.66 198.54 717.695 198.47 717.73H198.505Z" fill="#AAC5AB"/>
<path id="Vector_29" d="M189.287 702.331V721.974C189.287 723.518 190.654 724.991 192.231 724.921C193.808 724.85 195.175 723.623 195.175 721.974V702.331C195.175 700.787 193.808 699.314 192.231 699.384C190.654 699.455 189.287 700.682 189.287 702.331Z" fill="#AAC5AB"/>
<path id="Vector_30" d="M211.403 682.758C210.878 681.53 210.177 680.618 209.125 679.811C207.723 678.724 206.426 678.443 204.674 678.233C203.482 678.092 202.29 678.022 201.099 678.022C201.064 677.847 201.029 677.636 200.959 677.461C199.872 673.848 197.839 671.287 194.86 669.043C192.827 667.499 189.497 667.815 187.429 669.043C185.046 670.446 183.994 672.761 183.784 675.392C183.714 676.058 183.714 676.76 183.679 677.426C182.522 677.11 181.366 676.83 180.244 676.514C176.529 675.532 172.078 677.742 171.201 681.67C170.325 685.529 172.358 689.668 176.354 690.72C176.949 690.861 177.545 691.036 178.141 691.176C177.37 694.018 177.405 697.28 178.316 700.016C179.123 702.506 180.875 704.436 183.469 705.172C185.782 705.804 189.042 705.242 190.619 703.278C191.145 702.611 191.705 701.945 192.231 701.279C193.773 702.682 195.526 703.769 197.664 704.4C200.187 705.137 202.991 704.365 204.814 702.506C206.531 700.787 207.618 697.736 206.707 695.35C206.496 694.859 206.356 694.333 206.181 693.807C207.548 693.07 208.845 692.123 209.896 690.79C211.824 688.44 212.665 685.704 211.403 682.758ZM196.612 695.842C197.138 695.28 197.173 695.456 196.612 695.842V695.842Z" fill="#C0B6E8"/>
<path id="Vector_31" d="M192.371 697.385C201.835 697.385 201.87 682.652 192.371 682.652C182.873 682.652 182.873 697.385 192.371 697.385Z" fill="#ECEFBB"/>
</g>
<g id="flower_purple_4">
<path id="Vector_32" opacity="0.5" d="M829.986 727.025C824.856 727.025 820.698 726.161 820.698 725.096C820.698 724.031 824.856 723.167 829.986 723.167C835.116 723.167 839.274 724.031 839.274 725.096C839.274 726.161 835.116 727.025 829.986 727.025Z" fill="black" fill-opacity="0.1"/>
<path id="Vector_33" d="M813.127 711.1C814.003 709.487 815.896 709.171 817.578 709.206C819.927 709.276 822.205 709.978 824.273 711.065C826.376 712.188 828.304 713.731 829.986 715.45C833.175 712.258 837.031 709.732 841.587 709.276C842.884 709.136 844.356 709.171 845.548 709.802C846.529 710.328 847.09 711.346 847.23 712.433C847.406 713.626 846.88 714.748 846.074 715.59C845.268 716.432 844.111 717.063 843.095 717.66C842.148 718.221 841.202 718.712 840.22 719.203C837.837 720.326 835.349 721.273 832.755 721.904C831.773 722.15 830.722 721.834 829.951 721.167C829.25 721.834 828.269 722.185 827.217 721.904C822.906 720.852 818.595 719.028 814.95 716.467C814.249 715.976 813.583 715.45 813.162 714.678C812.566 713.556 812.531 712.258 813.162 711.17L813.127 711.1ZM818.034 711.416C817.999 711.381 817.964 711.346 817.824 711.276C817.859 711.346 817.964 711.381 818.034 711.451V711.416ZM839.484 715.73C839.484 715.73 839.449 715.73 839.414 715.765C839.414 715.765 839.484 715.765 839.484 715.73ZM841.622 715.134C841.622 715.134 841.622 715.134 841.658 715.134H841.622ZM841.903 711.416C841.973 711.346 842.078 711.311 842.113 711.24C842.008 711.346 841.973 711.346 841.903 711.381V711.416ZM823.712 717.73C823.712 717.73 823.607 717.66 823.607 717.625C823.607 717.66 823.677 717.695 823.747 717.73H823.712Z" fill="#AAC5AB"/>
<path id="Vector_34" d="M832.93 702.331V721.974C832.93 723.518 831.563 724.991 829.986 724.921C828.409 724.85 827.042 723.623 827.042 721.974V702.331C827.042 700.787 828.409 699.314 829.986 699.384C831.563 699.455 832.93 700.682 832.93 702.331Z" fill="#AAC5AB"/>
<path id="Vector_35" d="M810.814 682.758C811.339 681.53 812.04 680.618 813.092 679.811C814.494 678.724 815.791 678.443 817.543 678.233C818.735 678.092 819.927 678.022 821.118 678.022C821.153 677.847 821.188 677.636 821.258 677.461C822.345 673.848 824.378 671.287 827.357 669.043C829.39 667.499 832.72 667.815 834.788 669.043C837.171 670.446 838.223 672.761 838.433 675.392C838.503 676.058 838.503 676.76 838.538 677.426C839.695 677.11 840.851 676.83 841.973 676.514C845.688 675.532 850.139 677.742 851.016 681.67C851.892 685.529 849.859 689.668 845.863 690.72C845.268 690.861 844.672 691.036 844.076 691.176C844.847 694.018 844.812 697.28 843.901 700.016C843.094 702.506 841.342 704.436 838.748 705.172C836.435 705.804 833.175 705.242 831.598 703.278C831.072 702.611 830.512 701.945 829.986 701.279C828.444 702.682 826.691 703.769 824.553 704.4C822.03 705.137 819.226 704.365 817.403 702.506C815.686 700.787 814.599 697.736 815.51 695.35C815.721 694.859 815.861 694.333 816.036 693.807C814.669 693.07 813.372 692.123 812.321 690.79C810.393 688.44 809.552 685.704 810.814 682.758ZM825.605 695.842C825.079 695.28 825.044 695.456 825.605 695.842V695.842Z" fill="#C0B6E8"/>
<path id="Vector_36" d="M829.846 697.385C820.382 697.385 820.347 682.652 829.846 682.652C839.344 682.652 839.344 697.385 829.846 697.385Z" fill="#ECEFBB"/>
</g>
<g id="flower_pink">
<path id="Vector_37" opacity="0.5" d="M250.23 436.883C254.47 436.883 257.906 436.019 257.906 434.953C257.906 433.888 254.47 433.024 250.23 433.024C245.991 433.024 242.555 433.888 242.555 434.953C242.555 436.019 245.991 436.883 250.23 436.883Z" fill="black" fill-opacity="0.1"/>
<path id="Vector_38" d="M264.706 423.062C263.97 421.659 262.323 421.414 260.886 421.449C258.853 421.484 256.925 422.115 255.137 423.062C253.315 424.009 251.667 425.377 250.23 426.815C247.497 424.079 244.167 421.905 240.241 421.519C239.12 421.414 237.858 421.414 236.841 421.975C236 422.431 235.51 423.308 235.404 424.22C235.264 425.237 235.72 426.184 236.421 426.956C237.122 427.692 238.103 428.219 238.979 428.71C239.786 429.201 240.627 429.622 241.468 430.043C243.536 431.025 245.674 431.796 247.882 432.358C248.723 432.568 249.635 432.288 250.265 431.726C250.896 432.288 251.738 432.603 252.614 432.358C256.329 431.446 260.009 429.867 263.164 427.657C263.76 427.236 264.355 426.78 264.706 426.114C265.197 425.167 265.232 424.044 264.706 423.097V423.062ZM260.5 423.343C260.535 423.343 260.57 423.273 260.675 423.203C260.675 423.238 260.57 423.308 260.5 423.343ZM242.064 427.061C242.064 427.061 242.099 427.061 242.134 427.061C242.134 427.061 242.099 427.061 242.064 427.026V427.061ZM240.241 426.535C240.241 426.535 240.241 426.535 240.206 426.535H240.241ZM239.996 423.343C239.926 423.308 239.856 423.238 239.821 423.203C239.926 423.273 239.961 423.308 239.996 423.343ZM255.628 428.78C255.628 428.78 255.698 428.71 255.733 428.675C255.733 428.71 255.663 428.745 255.628 428.78Z" fill="#AAC5AB"/>
<path id="Vector_39" d="M247.707 415.521V432.393C247.707 433.726 248.863 434.989 250.23 434.918C251.597 434.848 252.754 433.796 252.754 432.393V415.521C252.754 414.188 251.597 412.925 250.23 412.995C248.863 413.065 247.707 414.118 247.707 415.521Z" fill="#AAC5AB"/>
<path id="Vector_40" d="M266.704 398.719C266.248 397.666 265.652 396.859 264.741 396.193C263.549 395.246 262.428 395.035 260.921 394.825C259.904 394.685 258.888 394.65 257.836 394.65C257.801 394.474 257.766 394.334 257.731 394.159C256.785 391.072 255.032 388.827 252.509 386.898C250.756 385.565 247.882 385.845 246.13 386.898C244.097 388.09 243.185 390.09 243.01 392.37C242.975 392.966 242.94 393.527 242.94 394.123C241.959 393.878 240.977 393.597 239.961 393.352C236.771 392.51 232.951 394.404 232.18 397.772C231.409 401.104 233.161 404.647 236.596 405.559C237.122 405.699 237.613 405.839 238.138 405.98C237.472 408.4 237.507 411.206 238.278 413.591C238.979 415.731 240.487 417.415 242.695 418.011C244.693 418.572 247.462 418.081 248.864 416.398C249.319 415.836 249.775 415.24 250.23 414.679C251.562 415.871 253.069 416.818 254.892 417.345C257.065 417.976 259.449 417.31 261.061 415.731C262.533 414.258 263.479 411.627 262.673 409.557C262.498 409.137 262.358 408.681 262.217 408.225C263.409 407.593 264.496 406.751 265.407 405.664C267.054 403.629 267.79 401.279 266.704 398.754V398.719ZM253.981 409.978C254.436 409.487 254.471 409.628 253.981 409.978V409.978Z" fill="#EEBEEA"/>
<path id="Vector_41" d="M250.336 411.276C258.467 411.276 258.502 398.613 250.336 398.613C242.169 398.613 242.169 411.276 250.336 411.276Z" fill="#ECEFBB"/>
</g>
<g id="flower_pink_2">
<path id="Vector_42" opacity="0.5" d="M771.987 436.883C767.747 436.883 764.311 436.019 764.311 434.953C764.311 433.888 767.747 433.024 771.987 433.024C776.226 433.024 779.663 433.888 779.663 434.953C779.663 436.019 776.226 436.883 771.987 436.883Z" fill="black" fill-opacity="0.1"/>
<path id="Vector_43" d="M757.511 423.062C758.247 421.659 759.894 421.414 761.331 421.449C763.364 421.484 765.292 422.115 767.08 423.062C768.902 424.009 770.55 425.377 771.987 426.815C774.72 424.079 778.05 421.905 781.976 421.519C783.097 421.414 784.359 421.414 785.376 421.975C786.217 422.431 786.708 423.308 786.813 424.22C786.953 425.237 786.497 426.184 785.796 426.956C785.095 427.692 784.114 428.219 783.238 428.71C782.431 429.201 781.59 429.622 780.749 430.043C778.681 431.025 776.543 431.796 774.335 432.358C773.494 432.568 772.582 432.288 771.952 431.726C771.321 432.288 770.479 432.603 769.603 432.358C765.888 431.446 762.208 429.867 759.053 427.657C758.457 427.236 757.862 426.78 757.511 426.114C757.02 425.167 756.985 424.044 757.511 423.097V423.062ZM761.717 423.343C761.682 423.343 761.647 423.273 761.542 423.203C761.542 423.238 761.647 423.308 761.717 423.343ZM780.153 427.061C780.153 427.061 780.118 427.061 780.083 427.061C780.083 427.061 780.118 427.061 780.153 427.026V427.061ZM781.976 426.535C781.976 426.535 781.976 426.535 782.011 426.535H781.976ZM782.221 423.343C782.291 423.308 782.361 423.238 782.396 423.203C782.291 423.273 782.256 423.308 782.221 423.343ZM766.589 428.78C766.589 428.78 766.519 428.71 766.484 428.675C766.484 428.71 766.554 428.745 766.589 428.78Z" fill="#AAC5AB"/>
<path id="Vector_44" d="M774.51 415.521V432.393C774.51 433.726 773.354 434.989 771.987 434.918C770.62 434.848 769.463 433.796 769.463 432.393V415.521C769.463 414.188 770.62 412.925 771.987 412.995C773.354 413.065 774.51 414.118 774.51 415.521Z" fill="#AAC5AB"/>
<path id="Vector_45" d="M755.513 398.719C755.969 397.666 756.565 396.859 757.476 396.193C758.668 395.246 759.789 395.035 761.296 394.825C762.313 394.685 763.329 394.65 764.381 394.65C764.416 394.474 764.451 394.334 764.486 394.159C765.432 391.072 767.185 388.827 769.708 386.898C771.461 385.565 774.335 385.845 776.087 386.898C778.12 388.09 779.032 390.09 779.207 392.37C779.242 392.966 779.277 393.527 779.277 394.123C780.258 393.878 781.24 393.597 782.256 393.352C785.446 392.51 789.266 394.404 790.037 397.772C790.808 401.104 789.056 404.647 785.621 405.559C785.095 405.699 784.604 405.839 784.079 405.98C784.745 408.4 784.71 411.206 783.939 413.591C783.238 415.731 781.73 417.415 779.522 418.011C777.524 418.572 774.756 418.081 773.354 416.398C772.898 415.836 772.442 415.24 771.987 414.679C770.655 415.871 769.148 416.818 767.325 417.345C765.152 417.976 762.768 417.31 761.156 415.731C759.684 414.258 758.738 411.627 759.544 409.557C759.719 409.137 759.859 408.681 760 408.225C758.808 407.593 757.721 406.751 756.81 405.664C755.163 403.629 754.427 401.279 755.513 398.754V398.719ZM768.236 409.978C767.781 409.487 767.746 409.628 768.236 409.978V409.978Z" fill="#EEBEEA"/>
<path id="Vector_46" d="M771.881 411.276C763.75 411.276 763.715 398.613 771.881 398.613C780.048 398.613 780.048 411.276 771.881 411.276Z" fill="#ECEFBB"/>
</g>
<g id="flower_pink_3">
<path id="Vector_47" opacity="0.5" d="M131.23 686.883C135.47 686.883 138.906 686.019 138.906 684.953C138.906 683.888 135.47 683.024 131.23 683.024C126.991 683.024 123.555 683.888 123.555 684.953C123.555 686.019 126.991 686.883 131.23 686.883Z" fill="black" fill-opacity="0.1"/>
<path id="Vector_48" d="M145.706 673.062C144.97 671.659 143.323 671.414 141.886 671.449C139.853 671.484 137.925 672.115 136.137 673.062C134.315 674.009 132.667 675.377 131.23 676.815C128.497 674.079 125.167 671.905 121.241 671.519C120.12 671.414 118.858 671.414 117.841 671.975C117 672.431 116.51 673.308 116.404 674.22C116.264 675.237 116.72 676.184 117.421 676.956C118.122 677.692 119.103 678.219 119.979 678.71C120.786 679.201 121.627 679.622 122.468 680.043C124.536 681.025 126.674 681.796 128.882 682.358C129.723 682.568 130.635 682.288 131.265 681.726C131.896 682.288 132.738 682.603 133.614 682.358C137.329 681.446 141.009 679.867 144.164 677.657C144.76 677.236 145.355 676.78 145.706 676.114C146.197 675.167 146.232 674.044 145.706 673.097V673.062ZM141.5 673.343C141.535 673.343 141.57 673.273 141.675 673.203C141.675 673.238 141.57 673.308 141.5 673.343ZM123.064 677.061C123.064 677.061 123.099 677.061 123.134 677.061C123.134 677.061 123.099 677.061 123.064 677.026V677.061ZM121.241 676.535C121.241 676.535 121.241 676.535 121.206 676.535H121.241ZM120.996 673.343C120.926 673.308 120.856 673.238 120.821 673.203C120.926 673.273 120.961 673.308 120.996 673.343ZM136.628 678.78C136.628 678.78 136.698 678.71 136.733 678.675C136.733 678.71 136.663 678.745 136.628 678.78Z" fill="#AAC5AB"/>
<path id="Vector_49" d="M128.707 665.521V682.393C128.707 683.726 129.863 684.989 131.23 684.918C132.597 684.848 133.754 683.796 133.754 682.393V665.521C133.754 664.188 132.597 662.925 131.23 662.995C129.863 663.065 128.707 664.118 128.707 665.521Z" fill="#AAC5AB"/>
<path id="Vector_50" d="M147.704 648.719C147.248 647.666 146.652 646.859 145.741 646.193C144.549 645.246 143.428 645.035 141.921 644.825C140.904 644.685 139.888 644.65 138.836 644.65C138.801 644.474 138.766 644.334 138.731 644.159C137.785 641.072 136.032 638.827 133.509 636.898C131.756 635.565 128.882 635.845 127.13 636.898C125.097 638.09 124.185 640.09 124.01 642.37C123.975 642.966 123.94 643.527 123.94 644.123C122.959 643.878 121.977 643.597 120.961 643.352C117.771 642.51 113.951 644.404 113.18 647.772C112.409 651.104 114.161 654.647 117.596 655.559C118.122 655.699 118.613 655.839 119.138 655.98C118.472 658.4 118.507 661.206 119.278 663.591C119.979 665.731 121.487 667.415 123.695 668.011C125.693 668.572 128.462 668.081 129.864 666.398C130.319 665.836 130.775 665.24 131.23 664.679C132.562 665.871 134.069 666.818 135.892 667.345C138.065 667.976 140.449 667.31 142.061 665.731C143.533 664.258 144.479 661.627 143.673 659.557C143.498 659.137 143.358 658.681 143.217 658.225C144.409 657.593 145.496 656.751 146.407 655.664C148.054 653.629 148.79 651.279 147.704 648.754V648.719ZM134.981 659.978C135.436 659.487 135.471 659.628 134.981 659.978V659.978Z" fill="#EEBEEA"/>
<path id="Vector_51" d="M131.336 661.276C139.467 661.276 139.502 648.613 131.336 648.613C123.169 648.613 123.169 661.276 131.336 661.276Z" fill="#ECEFBB"/>
</g>
<g id="flower_pink_4">
<path id="Vector_52" opacity="0.5" d="M890.987 686.883C886.747 686.883 883.311 686.019 883.311 684.953C883.311 683.888 886.747 683.024 890.987 683.024C895.226 683.024 898.663 683.888 898.663 684.953C898.663 686.019 895.226 686.883 890.987 686.883Z" fill="black" fill-opacity="0.1"/>
<path id="Vector_53" d="M876.511 673.062C877.247 671.659 878.894 671.414 880.331 671.449C882.364 671.484 884.292 672.115 886.08 673.062C887.902 674.009 889.55 675.377 890.987 676.815C893.72 674.079 897.05 671.905 900.976 671.519C902.097 671.414 903.359 671.414 904.376 671.975C905.217 672.431 905.708 673.308 905.813 674.22C905.953 675.237 905.497 676.184 904.796 676.956C904.095 677.692 903.114 678.219 902.238 678.71C901.431 679.201 900.59 679.622 899.749 680.043C897.681 681.025 895.543 681.796 893.335 682.358C892.494 682.568 891.582 682.288 890.952 681.726C890.321 682.288 889.479 682.603 888.603 682.358C884.888 681.446 881.208 679.867 878.053 677.657C877.457 677.236 876.862 676.78 876.511 676.114C876.02 675.167 875.985 674.044 876.511 673.097V673.062ZM880.717 673.343C880.682 673.343 880.647 673.273 880.542 673.203C880.542 673.238 880.647 673.308 880.717 673.343ZM899.153 677.061C899.153 677.061 899.118 677.061 899.083 677.061C899.083 677.061 899.118 677.061 899.153 677.026V677.061ZM900.976 676.535C900.976 676.535 900.976 676.535 901.011 676.535H900.976ZM901.221 673.343C901.291 673.308 901.361 673.238 901.396 673.203C901.291 673.273 901.256 673.308 901.221 673.343ZM885.589 678.78C885.589 678.78 885.519 678.71 885.484 678.675C885.484 678.71 885.554 678.745 885.589 678.78Z" fill="#AAC5AB"/>
<path id="Vector_54" d="M893.51 665.521V682.393C893.51 683.726 892.354 684.989 890.987 684.918C889.62 684.848 888.463 683.796 888.463 682.393V665.521C888.463 664.188 889.62 662.925 890.987 662.995C892.354 663.065 893.51 664.118 893.51 665.521Z" fill="#AAC5AB"/>
<path id="Vector_55" d="M874.513 648.719C874.969 647.666 875.565 646.859 876.476 646.193C877.668 645.246 878.789 645.035 880.296 644.825C881.313 644.685 882.329 644.65 883.381 644.65C883.416 644.474 883.451 644.334 883.486 644.159C884.432 641.072 886.185 638.827 888.708 636.898C890.461 635.565 893.335 635.845 895.087 636.898C897.12 638.09 898.032 640.09 898.207 642.37C898.242 642.966 898.277 643.527 898.277 644.123C899.258 643.878 900.24 643.597 901.256 643.352C904.446 642.51 908.266 644.404 909.037 647.772C909.808 651.104 908.056 654.647 904.621 655.559C904.095 655.699 903.604 655.839 903.079 655.98C903.745 658.4 903.71 661.206 902.939 663.591C902.238 665.731 900.73 667.415 898.522 668.011C896.524 668.572 893.756 668.081 892.354 666.398C891.898 665.836 891.442 665.24 890.987 664.679C889.655 665.871 888.148 666.818 886.325 667.345C884.152 667.976 881.768 667.31 880.156 665.731C878.684 664.258 877.738 661.627 878.544 659.557C878.719 659.137 878.859 658.681 879 658.225C877.808 657.593 876.721 656.751 875.81 655.664C874.163 653.629 873.427 651.279 874.513 648.754V648.719ZM887.236 659.978C886.781 659.487 886.746 659.628 887.236 659.978V659.978Z" fill="#EEBEEA"/>
<path id="Vector_56" d="M890.881 661.276C882.75 661.276 882.715 648.613 890.881 648.613C899.048 648.613 899.048 661.276 890.881 661.276Z" fill="#ECEFBB"/>
</g>
</g>
</g>
</g>
<defs>
<filter id="filter0_d_0_1" x="863.901" y="42.6762" width="102.471" height="59.0983" filterUnits="userSpaceOnUse" color-interpolation-filters="sRGB">
<feFlood flood-opacity="0" result="BackgroundImageFix"/>
<feColorMatrix in="SourceAlpha" type="matrix" values="0 0 0 0 0 0 0 0 0 0 0 0 0 0 0 0 0 0 127 0" result="hardAlpha"/>
<feOffset dx="-3" dy="2"/>
<feGaussianBlur stdDeviation="1.5"/>
<feComposite in2="hardAlpha" operator="out"/>
<feColorMatrix type="matrix" values="0 0 0 0 0 0 0 0 0 0 0 0 0 0 0 0 0 0 0.05 0"/>
<feBlend mode="normal" in2="BackgroundImageFix" result="effect1_dropShadow_0_1"/>
<feBlend mode="normal" in="SourceGraphic" in2="effect1_dropShadow_0_1" result="shape"/>
</filter>
<filter id="filter1_d_0_1" x="929.222" y="68.0952" width="71.4694" height="40.55" filterUnits="userSpaceOnUse" color-interpolation-filters="sRGB">
<feFlood flood-opacity="0" result="BackgroundImageFix"/>
<feColorMatrix in="SourceAlpha" type="matrix" values="0 0 0 0 0 0 0 0 0 0 0 0 0 0 0 0 0 0 127 0" result="hardAlpha"/>
<feOffset dx="-3" dy="2"/>
<feGaussianBlur stdDeviation="1"/>
<feComposite in2="hardAlpha" operator="out"/>
<feColorMatrix type="matrix" values="0 0 0 0 0 0 0 0 0 0 0 0 0 0 0 0 0 0 0.1 0"/>
<feBlend mode="normal" in2="BackgroundImageFix" result="effect1_dropShadow_0_1"/>
<feBlend mode="normal" in="SourceGraphic" in2="effect1_dropShadow_0_1" result="shape"/>
</filter>
<filter id="filter2_d_0_1" x="22.901" y="35.6762" width="102.471" height="59.0983" filterUnits="userSpaceOnUse" color-interpolation-filters="sRGB">
<feFlood flood-opacity="0" result="BackgroundImageFix"/>
<feColorMatrix in="SourceAlpha" type="matrix" values="0 0 0 0 0 0 0 0 0 0 0 0 0 0 0 0 0 0 127 0" result="hardAlpha"/>
<feOffset dx="-3" dy="2"/>
<feGaussianBlur stdDeviation="1.5"/>
<feComposite in2="hardAlpha" operator="out"/>
<feColorMatrix type="matrix" values="0 0 0 0 0 0 0 0 0 0 0 0 0 0 0 0 0 0 0.05 0"/>
<feBlend mode="normal" in2="BackgroundImageFix" result="effect1_dropShadow_0_1"/>
<feBlend mode="normal" in="SourceGraphic" in2="effect1_dropShadow_0_1" result="shape"/>
</filter>
<filter id="filter3_d_0_1" x="88.2224" y="61.0952" width="71.4694" height="40.55" filterUnits="userSpaceOnUse" color-interpolation-filters="sRGB">
<feFlood flood-opacity="0" result="BackgroundImageFix"/>
<feColorMatrix in="SourceAlpha" type="matrix" values="0 0 0 0 0 0 0 0 0 0 0 0 0 0 0 0 0 0 127 0" result="hardAlpha"/>
<feOffset dx="-3" dy="2"/>
<feGaussianBlur stdDeviation="1"/>
<feComposite in2="hardAlpha" operator="out"/>
<feColorMatrix type="matrix" values="0 0 0 0 0 0 0 0 0 0 0 0 0 0 0 0 0 0 0.1 0"/>
<feBlend mode="normal" in2="BackgroundImageFix" result="effect1_dropShadow_0_1"/>
<feBlend mode="normal" in="SourceGraphic" in2="effect1_dropShadow_0_1" result="shape"/>
</filter>
<filter id="filter4_d_0_1" x="555" y="52" width="102.471" height="59.0983" filterUnits="userSpaceOnUse" color-interpolation-filters="sRGB">
<feFlood flood-opacity="0" result="BackgroundImageFix"/>
<feColorMatrix in="SourceAlpha" type="matrix" values="0 0 0 0 0 0 0 0 0 0 0 0 0 0 0 0 0 0 127 0" result="hardAlpha"/>
<feOffset dx="-3" dy="2"/>
<feGaussianBlur stdDeviation="1.5"/>
<feComposite in2="hardAlpha" operator="out"/>
<feColorMatrix type="matrix" values="0 0 0 0 0 0 0 0 0 0 0 0 0 0 0 0 0 0 0.05 0"/>
<feBlend mode="normal" in2="BackgroundImageFix" result="effect1_dropShadow_0_1"/>
<feBlend mode="normal" in="SourceGraphic" in2="effect1_dropShadow_0_1" result="shape"/>
</filter>
</defs>
</svg>
